<svg xmlns="http://www.w3.org/2000/svg" viewBox="0 0 914.84 732.08"><defs><style>.cls-1{fill:#b4b4b3;}.cls-2{fill:#fff;}.cls-3{fill:#206790;}.cls-4{fill:#174d6c;}.cls-5{fill:#ec7765;}.cls-11,.cls-6{fill:none;}.cls-6{stroke:#c77765;}.cls-10,.cls-6{stroke-miterlimit:10;}.cls-7{fill:#d6ffb4;}.cls-8{fill:#ffd4fc;}.cls-9{fill:#d4e4ff;}.cls-10{fill:#ffd8c9;stroke:#fff;}.cls-12{fill:#ba9bc9;}.cls-13{fill:#4d4d4d;}.cls-14{fill:#ff9e5f;}.cls-15{fill:#fff6bf;}.cls-16{fill:#c9ffce;}.cls-17{fill:#ff3557;}</style></defs><g id="Ebene_2" data-name="Ebene 2"><g id="Ebene_1-2" data-name="Ebene 1"><path class="cls-1" d="M261.89,1.35c53.55-6.74,55.62,13.41,152,23C590.55,41.81,628.05-21.36,728,12.42,815.84,42.09,894.5,127.19,910.88,227.26c2.77,16.89,16.55,101-31.26,169.6-49.54,71.07-118.23,58-174.17,139.54-34.55,50.36-20.73,73.38-43.81,109.16C567.18,792,123.07,735.75,87.51,601.79,70,535.65,159,479,129.12,406.6,103.87,345.46,27.33,358.8,6.26,307.52-30.92,217,103,21.36,261.89,1.35Z"/><path class="cls-2" d="M275.37,617.5,797.54,343c4.1,1.54,24.65,9.75,35.06,32.56,11.71,25.65,1.21,49.23-.38,52.65L321.94,689.83a81.84,81.84,0,0,1-46.57-72.33Z"/><path class="cls-3" d="M664.5,483.73q-15-103.07-29.9-206.15a840.43,840.43,0,0,0-361,12.33q-16.62,95.79-33.23,191.58a564.78,564.78,0,0,0,214.86,42.58A564.53,564.53,0,0,0,664.5,483.73Z"/><path class="cls-4" d="M240.32,482.29c48.76,22.16,122.22,48,212.65,50.39,100.95,2.67,211.71-24.14,211.53-46.3-.18-22.51-114.78-44.49-211.53-43.58C363.12,443.65,289.61,464.24,240.32,482.29Z"/><path class="cls-4" d="M451.25,124.07,60.05,301l201.09,70.88q6.6-36,13.19-72a836.26,836.26,0,0,1,358.24-6.59c.51,2.62,1,5.24,1.52,7.86q7.65,39.66,15.29,79.31l.78,4,187.91-82.42Z"/><polygon class="cls-5" points="257.83 212.16 257.83 343.04 244.56 343.04 244.56 218.01 257.83 212.16"/><ellipse class="cls-5" cx="251.19" cy="351.29" rx="34.86" ry="24.66"/><polyline class="cls-5" points="597.72 517.22 606.64 585.04 579.88 596.93 569.98 524.86"/><polygon class="cls-5" points="578.4 523.47 630.36 564.1 640.82 543.78 602.29 515.83 578.4 523.47"/><polyline class="cls-5" points="563.42 525.44 570.09 524.06 572.53 541.66"/><line class="cls-5" x1="623.21" y1="536.49" x2="602.04" y2="516.67"/><line class="cls-6" x1="578.95" y1="523.88" x2="601.93" y2="541.85"/><circle class="cls-7" cx="180.87" cy="29.72" r="20.15"/><circle class="cls-8" cx="624.04" cy="70.75" r="13.62"/><circle class="cls-9" cx="882.67" cy="513.9" r="23.49"/><circle class="cls-10" cx="61.35" cy="548.49" r="18.09"/><polyline class="cls-5" points="612.63 514.88 621.25 529.59 604.21 517.22"/><path class="cls-4" d="M535.7,526.58c11,.35,33,.29,56.67-5.35,18.27-4.36,30-10.27,36.52-14.12"/><line class="cls-6" x1="571.26" y1="525.01" x2="572.53" y2="541.66"/><line class="cls-6" x1="606.81" y1="517.08" x2="621.25" y2="529.59"/><line class="cls-11" x1="109.2" y1="129.46" x2="114.16" y2="192.87"/><rect class="cls-12" x="93.46" y="155.66" width="3.74" height="29.5" rx="1.87"/><rect class="cls-12" x="93.46" y="155.66" width="3.74" height="29.5" rx="1.87" transform="translate(-75.08 265.74) rotate(-90)"/><rect class="cls-13" x="386.63" y="60.21" width="5.06" height="39.85" rx="1.87"/><rect class="cls-13" x="386.63" y="60.21" width="5.06" height="39.85" rx="1.87" transform="translate(309.02 469.3) rotate(-90)"/><rect class="cls-14" x="844.34" y="74.41" width="3.34" height="28.95" rx="1.67"/><rect class="cls-14" x="844.17" y="75.72" width="3.67" height="26.34" rx="1.84" transform="translate(757.12 934.9) rotate(-90)"/><circle class="cls-15" cx="832.84" cy="250.3" r="11.63"/><path class="cls-16" d="M134.74,677.88h0a2.59,2.59,0,0,1-2.56-2.62v-36a2.59,2.59,0,0,1,2.56-2.61h0a2.59,2.59,0,0,1,2.57,2.61v36A2.58,2.58,0,0,1,134.74,677.88Z"/><path class="cls-16" d="M155,657.24h0a2.6,2.6,0,0,1-2.57,2.62H117.06a2.59,2.59,0,0,1-2.57-2.62h0a2.6,2.6,0,0,1,2.57-2.62h35.37A2.59,2.59,0,0,1,155,657.24Z"/><path class="cls-17" d="M584.79,689.83h0a1.41,1.41,0,0,1-1.42-1.4V669.17a1.41,1.41,0,0,1,1.42-1.4h0a1.42,1.42,0,0,1,1.43,1.4v19.26A1.41,1.41,0,0,1,584.79,689.83Z"/><path class="cls-17" d="M596,678.8h0a1.42,1.42,0,0,1-1.43,1.4H575a1.41,1.41,0,0,1-1.42-1.4h0a1.41,1.41,0,0,1,1.42-1.4H594.6A1.41,1.41,0,0,1,596,678.8Z"/></g></g></svg>