<svg xmlns="http://www.w3.org/2000/svg" viewBox="0 0 389.34 395.96"><defs><style>.cls-1{fill:#009ee2;}.cls-2{fill:#1d71b7;}.cls-3{fill:#db3838;}.cls-4{fill:#ea5b5f;}</style></defs><g id="Ebene_2" data-name="Ebene 2"><g id="Ebene_1-2" data-name="Ebene 1"><path class="cls-1" d="M304.23,364.65c.55,1.38-37.06,26.17-90,30.62a198.16,198.16,0,0,1-78.38-9.19A200.3,200.3,0,0,1,55,334.64C19,297,8.08,256.27,5.4,245.24a194.79,194.79,0,0,1,3.67-104.1C21.42,101.9,40.22,81.49,54.06,69A58.7,58.7,0,0,1,82.29,54.72c9.06-1.75,19.41-1.5,26.6,5.59a37.81,37.81,0,0,1,9.18,15.31c.14.45.26.9.38,1.34a31.85,31.85,0,0,1-6.92,28.61,210.15,210.15,0,0,0-38.16,65A161.72,161.72,0,0,0,63.57,211a156.4,156.4,0,0,0,7.35,66.13c17.25,50.4,56.68,76.4,70.42,84.51a166.43,166.43,0,0,0,80.22,22.66C269.92,385.08,303.71,363.35,304.23,364.65Z"/><path class="cls-2" d="M317.14,349.66c.41,1-27.76,19.61-67.44,22.94A149.43,149.43,0,0,1,93.27,260.2a145.89,145.89,0,0,1,2.75-78c9.25-29.4,23.34-44.69,33.7-54.06a44.06,44.06,0,0,1,21.15-10.69c6.79-1.3,14.54-1.12,19.93,4.19a28.54,28.54,0,0,1,6.88,11.47c.1.34.19.67.28,1a23.86,23.86,0,0,1-5.19,21.43,157.5,157.5,0,0,0-28.58,48.67,121.05,121.05,0,0,0-7.34,30.27,117.19,117.19,0,0,0,5.5,49.55c12.93,37.75,42.47,57.23,52.76,63.31a124.71,124.71,0,0,0,60.1,17C291.44,365,316.75,348.68,317.14,349.66Z"/><path class="cls-3" d="M220.75,318c-.22.54,14.76,10.42,35.85,12.19a79,79,0,0,0,31.21-3.66,80.05,80.05,0,0,0,51.94-56.09A77.54,77.54,0,0,0,338.29,229c-4.92-15.63-12.4-23.76-17.91-28.74a23.46,23.46,0,0,0-11.25-5.68c-3.61-.69-7.73-.6-10.59,2.23a15.22,15.22,0,0,0-3.66,6.09l-.15.54a12.71,12.71,0,0,0,2.76,11.39,83.79,83.79,0,0,1,15.2,25.87,64.86,64.86,0,0,1,3.9,16.1,62.28,62.28,0,0,1-2.93,26.33c-6.87,20.07-22.57,30.43-28,33.66a66.39,66.39,0,0,1-32,9C234.41,326.09,221,317.44,220.75,318Z"/><path class="cls-4" d="M224.17,326.87c-.29.75,20.12,14.21,48.87,16.62a107.67,107.67,0,0,0,42.56-5A109.2,109.2,0,0,0,386.41,262a105.73,105.73,0,0,0-2-56.51c-6.7-21.31-16.91-32.39-24.42-39.18a31.9,31.9,0,0,0-15.33-7.74c-4.92-1-10.53-.82-14.44,3a20.6,20.6,0,0,0-5,8.31c-.08.25-.15.49-.21.73a17.32,17.32,0,0,0,3.76,15.54,114,114,0,0,1,20.72,35.26,88.11,88.11,0,0,1,5.32,22,85.1,85.1,0,0,1-4,35.9c-9.37,27.36-30.78,41.48-38.24,45.88a90.26,90.26,0,0,1-43.55,12.3C242.8,338,224.45,326.16,224.17,326.87Z"/><circle class="cls-1" cx="149.14" cy="32.3" r="32.3"/><circle class="cls-2" cx="201.38" cy="94" r="22.79"/><circle class="cls-4" cx="304.23" cy="147.03" r="15.71"/><circle class="cls-3" cx="277.68" cy="180.76" r="13.41"/></g></g></svg>